<svg width="100%" viewBox="0 0 680 680" xmlns="http://www.w3.org/2000/svg">
  <defs>
    <clipPath id="iconClip">
      <rect x="140" y="140" width="400" height="400" rx="90"/>
    </clipPath>
  </defs>

  <rect x="140" y="140" width="400" height="400" rx="90" fill="#1A6FC4"/>

  <g clip-path="url(#iconClip)">

    <!-- Sky -->
    <rect x="140" y="140" width="400" height="280" fill="#1A6FC4"/>

    <!-- Deep water base -->
    <rect x="140" y="400" width="400" height="140" fill="#0B3D73"/>

    <!-- Wave layer 3 — back -->
    <path d="M140 408 Q180 388 220 408 Q260 428 300 408 Q340 388 380 408 Q420 428 460 408 Q500 388 540 405 L540 540 L140 540 Z" fill="#0D4882"/>
    <!-- Wave layer 2 — mid -->
    <path d="M140 426 Q175 404 215 424 Q255 444 295 422 Q335 400 375 422 Q415 444 455 424 Q490 408 540 422 L540 540 L140 540 Z" fill="#0F5496"/>
    <!-- Wave layer 1 — front -->
    <path d="M140 448 Q170 426 205 448 Q240 470 278 446 Q316 422 354 446 Q392 470 430 448 Q465 428 510 446 Q525 452 540 446 L540 540 L140 540 Z" fill="#1560A8"/>

    <!-- Wave crests -->
    <path d="M140 448 Q170 426 205 448 Q240 470 278 446 Q316 422 354 446 Q392 470 430 448 Q465 428 510 446 Q525 452 540 446" fill="none" stroke="white" stroke-width="4" stroke-linecap="round" opacity="0.55"/>
    <path d="M140 426 Q175 404 215 424 Q255 444 295 422 Q335 400 375 422 Q415 444 455 424 Q490 408 540 422" fill="none" stroke="white" stroke-width="3" stroke-linecap="round" opacity="0.3"/>
    <path d="M140 408 Q180 388 220 408 Q260 428 300 408 Q340 388 380 408 Q420 428 460 408 Q500 388 540 405" fill="none" stroke="white" stroke-width="2" stroke-linecap="round" opacity="0.18"/>

    <!-- Hull -->
    <path d="M190 412 L490 412 Q500 412 504 420 L515 440 Q518 448 510 452 L210 452 Q196 452 190 440 L178 424 Q175 416 190 412 Z" fill="#F0F4F8"/>
    <path d="M190 443 Q196 452 210 452 L510 452 Q518 448 514 443 L190 443 Z" fill="#D04040" opacity="0.7"/>
    <line x1="218" y1="412" x2="462" y2="412" stroke="#C8D5E3" stroke-width="2"/>

    <!-- Main deck -->
    <path d="M222 364 Q226 358 234 358 L446 358 Q454 358 458 364 L464 412 L216 412 Z" fill="#E2EAF4"/>
    <line x1="222" y1="364" x2="458" y2="364" stroke="#C8D5E3" stroke-width="1.5"/>

    <!-- 4 windows -->
    <rect x="252" y="377" width="30" height="22" rx="4" fill="#1A6FC4" opacity="0.9"/>
    <rect x="300" y="377" width="30" height="22" rx="4" fill="#1A6FC4" opacity="0.9"/>
    <rect x="348" y="377" width="30" height="22" rx="4" fill="#1A6FC4" opacity="0.9"/>
    <rect x="396" y="377" width="30" height="22" rx="4" fill="#1A6FC4" opacity="0.9"/>
    <rect x="252" y="377" width="9" height="6" rx="2" fill="white" opacity="0.28"/>
    <rect x="300" y="377" width="9" height="6" rx="2" fill="white" opacity="0.28"/>
    <rect x="348" y="377" width="9" height="6" rx="2" fill="white" opacity="0.28"/>
    <rect x="396" y="377" width="9" height="6" rx="2" fill="white" opacity="0.28"/>

    <!-- Cabin -->
    <path d="M272 298 Q276 292 284 292 L396 292 Q404 292 408 298 L416 358 L264 358 Z" fill="#D4E2F0"/>
    <line x1="264" y1="358" x2="416" y2="358" stroke="#BDD0E4" stroke-width="1.5"/>

    <!-- Roof visor -->
    <rect x="260" y="312" width="160" height="7" rx="3" fill="#B8CCE0"/>
    <line x1="262" y1="319" x2="418" y2="319" stroke="#9AAFC4" stroke-width="1.5" opacity="0.5"/>

    <!-- Panoramic window strip -->
    <rect x="272" y="324" width="136" height="22" rx="5" fill="#1A6FC4" opacity="0.82"/>
    <rect x="274" y="324" width="132" height="6" rx="3" fill="white" opacity="0.18"/>
    <line x1="318" y1="326" x2="318" y2="344" stroke="white" stroke-width="1" opacity="0.15"/>
    <line x1="340" y1="326" x2="340" y2="344" stroke="white" stroke-width="1" opacity="0.15"/>
    <line x1="362" y1="326" x2="362" y2="344" stroke="white" stroke-width="1" opacity="0.15"/>

    <!-- Funnel -->
    <rect x="322" y="258" width="26" height="36" rx="5" fill="#E2EAF4"/>
    <rect x="318" y="251" width="34" height="10" rx="4" fill="#C8D5E3"/>
    <rect x="322" y="268" width="26" height="8" rx="0" fill="#1A6FC4" opacity="0.45"/>

    <!-- Mast + flag -->
    <line x1="340" y1="206" x2="340" y2="254" stroke="#C8D5E3" stroke-width="3" stroke-linecap="round"/>
    <path d="M340 209 L372 220 L340 234 Z" fill="#F6AD55"/>

  </g>

  <rect x="140" y="140" width="400" height="400" rx="90" fill="none" stroke="white" stroke-width="1.5" opacity="0.12"/>
</svg>
