<svg xmlns="http://www.w3.org/2000/svg" viewBox="0 0 1024 1024" width="1024" height="1024">
<defs>
<linearGradient id="bg" x1="140" y1="0" x2="884" y2="1024" gradientUnits="userSpaceOnUse">
<stop offset="0" stop-color="#3a5a86"></stop><stop offset="0.55" stop-color="#26456e"></stop><stop offset="1" stop-color="#1b2f4d"></stop>
</linearGradient>
<linearGradient id="hl" x1="0" y1="0" x2="0" y2="472" gradientUnits="userSpaceOnUse">
<stop offset="0" stop-color="#ffffff" stop-opacity="0.26"></stop><stop offset="1" stop-color="#ffffff" stop-opacity="0"></stop>
</linearGradient>
<clipPath id="round"><rect x="0" y="0" width="1024" height="1024" rx="235" ry="235"></rect></clipPath>
</defs>
<g clip-path="url(#round)">
<rect x="0" y="0" width="1024" height="1024" fill="url(#bg)"></rect>
<rect x="0" y="0" width="1024" height="1024" fill="url(#hl)"></rect>
<g transform="translate(0,-120)">
<path d="M286 588 H738 L710 682 Q698 710 667 710 H357 Q326 710 314 682 Z" fill="#fff"></path>
<rect x="412" y="470" width="158" height="122" rx="20" fill="#fff"></rect>
<rect x="448" y="432" width="96" height="44" rx="13" fill="#fff"></rect>
<rect x="600" y="452" width="44" height="140" rx="14" fill="#fff"></rect>
<rect x="443" y="506" width="36" height="40" rx="8" fill="rgba(20,84,138,0.5)"></rect>
<rect x="503" y="506" width="36" height="40" rx="8" fill="rgba(20,84,138,0.5)"></rect>
<path d="M222 748 q64 -52 134 0 q71 52 142 0 q71 -52 142 0 q69 52 132 0" stroke="#fff" stroke-width="36" stroke-linecap="round" fill="none"></path>
<path d="M258 824 q60 -46 126 0 q66 46 134 0 q66 -46 132 0" stroke="rgba(255,255,255,0.5)" stroke-width="32" stroke-linecap="round" fill="none"></path>
</g>
</g>
</svg>